<svg id="Camada_1" data-name="Camada 1" xmlns="http://www.w3.org/2000/svg" viewBox="0 0 500 100"><defs><style>.cls-1,.cls-2{fill:#fff;}.cls-1{fill-rule:evenodd;}</style></defs><path class="cls-1" d="M132,38h28V80h.2c10.94,0,19.8-9.13,19.8-20.4V38h30V22H132Z"/><path class="cls-1" d="M268.69,62H249.43c-6.72,0-12.53-5-12.84-11.43A12.21,12.21,0,0,1,249,38H268.3c6.72,0,12.52,5,12.84,11.43A12.23,12.23,0,0,1,268.69,62Zm5.53-42H243.5c-17.13,0-31.14,13.5-31.14,30s14,30,31.14,30h30.72c17.13,0,31.15-13.5,31.15-30S291.35,20,274.22,20Z"/><path class="cls-1" d="M463.32,62H444.06c-6.72,0-12.53-5-12.84-11.43A12.23,12.23,0,0,1,443.66,38h19.27c6.72,0,12.52,5,12.84,11.43A12.23,12.23,0,0,1,463.32,62Zm5.53-42H438.13C421,20,407,33.5,407,50s14,30,31.14,30h30.72C486,80,500,66.5,500,50S486,20,468.85,20Z"/><path class="cls-1" d="M366.43,48H338V36h28.43A5.59,5.59,0,0,1,372,41.57v.86A5.59,5.59,0,0,1,366.43,48Zm27.09-5.12a20.46,20.46,0,0,0-6.37-14.75A22,22,0,0,0,371.85,22H316V78h22V64h23.26l8.16,14h24.1l-10-17.54A20.73,20.73,0,0,0,393.52,42.88Z"/><path class="cls-2" d="M0,64.87V32.45A32.45,32.45,0,0,1,32.45,0H100C88.5,22,25,61.67,0,64.87Z"/><path class="cls-2" d="M.35,100H50V74.53S12.85,100,.35,100Z"/><path class="cls-2" d="M102,9.16V67.55A32.45,32.45,0,0,1,69.55,100H66V59.66S92.33,36,102,9.16Z"/></svg>